<?xml version="1.0" standalone="no"?>
<!DOCTYPE svg PUBLIC "-//W3C//DTD SVG 20010904//EN"
 "http://www.w3.org/TR/2001/REC-SVG-20010904/DTD/svg10.dtd">
<svg version="1.0" xmlns="http://www.w3.org/2000/svg"
 width="256.000000pt" height="184.000000pt" viewBox="0 0 256.000000 184.000000"
 preserveAspectRatio="xMidYMid meet">
<g transform="translate(0.000000,184.000000) scale(0.100000,-0.100000)"
fill="#000000" stroke="none">
<path d="M895 1799 c-251 -18 -467 -88 -631 -205 -85 -60 -148 -134 -191 -222
-35 -73 -35 -77 -31 -167 4 -80 10 -104 42 -171 20 -44 38 -88 40 -99 10 -48
72 -247 102 -322 101 -260 273 -433 506 -513 207 -70 404 -65 621 17 125 46
248 144 369 292 l36 45 208 0 209 1 70 35 c50 25 96 61 161 125 120 117 139
154 139 265 0 74 -4 93 -31 150 -38 80 -78 128 -121 146 -39 17 -147 18 -261
4 -105 -13 -122 -6 -122 53 0 128 -71 250 -205 352 -210 161 -545 240 -910
214z m325 -23 c8 -3 31 -7 50 -10 104 -15 120 -19 120 -28 0 -5 10 -6 23 -3
15 4 18 3 9 -3 -11 -7 -10 -11 3 -16 10 -3 24 -1 31 5 12 10 13 9 8 -5 -4 -11
-1 -16 14 -16 11 0 22 4 24 9 2 5 10 2 18 -7 13 -14 12 -15 -3 -9 -9 3 -19 3
-21 -2 -3 -4 1 -8 9 -8 8 0 32 -8 54 -18 33 -14 43 -15 56 -5 10 8 15 9 15 1
0 -6 5 -11 11 -11 5 0 7 6 3 13 -5 6 7 0 25 -15 18 -16 37 -29 42 -29 19 -3
24 -5 37 -12 7 -5 10 -13 7 -18 -4 -5 3 -9 15 -9 12 0 18 -5 15 -10 -4 -6 -10
-8 -15 -5 -4 3 -7 -3 -5 -12 2 -10 4 -22 4 -28 1 -5 5 -3 10 5 6 8 7 18 5 22
-3 4 4 8 14 8 11 0 23 -7 26 -16 3 -9 11 -12 18 -8 7 4 10 4 6 0 -4 -5 6 -21
23 -37 16 -15 25 -30 20 -33 -5 -3 0 -36 11 -73 12 -45 18 -89 16 -130 -2 -35
0 -57 4 -50 11 15 7 177 -4 171 -4 -3 -8 -1 -8 4 0 5 -3 25 -6 43 -4 19 -4 31
0 27 4 -3 6 -9 4 -12 -1 -3 6 -12 17 -21 11 -9 13 -13 5 -9 -8 4 -4 -4 9 -19
13 -14 20 -31 16 -37 -4 -7 -2 -16 5 -20 11 -7 15 -74 6 -115 -8 -38 -39 -110
-56 -130 -32 -39 -50 -75 -47 -96 1 -12 -4 -24 -11 -26 -9 -4 -11 2 -7 20 7
26 -9 45 -21 26 -5 -8 -3 -9 6 -4 8 5 11 3 8 -6 -3 -8 -11 -13 -17 -12 -17 4
-13 -17 4 -23 12 -5 13 -9 4 -20 -25 -31 -145 -110 -159 -106 -10 3 -8 -1 4
-10 17 -14 16 -15 -17 -14 -27 1 -33 -2 -29 -14 5 -13 3 -13 -10 -2 -13 10
-18 10 -24 1 -5 -8 -3 -9 6 -4 8 5 11 4 7 -3 -4 -5 -15 -8 -26 -5 -10 2 -24
-1 -32 -9 -8 -7 -25 -14 -39 -16 -14 -1 -26 -6 -28 -11 -1 -4 -15 -7 -30 -5
l-27 4 25 -9 c35 -12 52 -13 45 -1 -4 6 6 10 24 10 16 0 33 5 37 11 4 7 21 9
43 5 22 -3 31 -2 22 3 -10 7 -8 11 10 17 13 4 27 7 32 6 4 -1 7 3 7 10 0 6 3
8 6 5 4 -4 29 5 56 20 26 14 46 29 43 31 -3 3 -11 0 -17 -6 -14 -14 -28 -16
-28 -3 0 5 9 13 21 16 11 4 52 36 90 72 38 36 69 59 69 52 1 -9 9 -5 21 10 14
17 23 21 30 14 8 -8 5 -13 -10 -18 -12 -3 -18 -11 -15 -17 4 -6 9 -5 15 3 5 8
26 13 51 13 43 0 166 -2 314 -4 59 0 81 3 81 12 0 7 -10 13 -23 13 -12 0 -20
-3 -17 -7 2 -5 -3 -8 -11 -8 -9 0 -16 5 -16 11 0 8 -6 7 -17 -2 -10 -9 -18
-10 -20 -4 -2 7 -31 8 -81 4 -100 -9 -184 -2 -198 17 -15 19 -28 18 -20 -2 4
-11 1 -14 -12 -12 -20 4 -18 37 4 80 8 15 14 34 14 41 0 10 9 14 25 13 14 0
25 -5 25 -9 0 -5 9 -6 20 -2 39 12 236 26 257 18 7 -3 13 -13 13 -24 0 -19 37
-59 54 -59 6 0 3 7 -6 14 -10 7 -18 19 -18 25 0 7 -4 9 -10 6 -5 -3 -10 -1
-10 4 0 6 6 11 13 11 8 0 7 4 -3 10 -12 8 -11 10 5 7 11 -1 26 -6 33 -10 18
-12 52 -83 44 -92 -4 -5 -1 -5 6 -1 7 4 12 2 12 -5 0 -7 3 -10 6 -7 3 3 -4 25
-16 48 -12 23 -16 39 -10 35 15 -9 60 -105 49 -105 -5 0 -9 4 -9 9 0 12 -42 1
-58 -16 -7 -7 -12 -13 -10 -14 28 -6 36 -5 32 5 -3 7 2 13 11 13 10 0 18 -12
22 -29 3 -16 10 -31 14 -34 5 -3 9 -18 9 -35 0 -16 4 -29 8 -29 4 0 9 -20 9
-45 1 -25 -2 -43 -7 -40 -4 3 -13 -2 -20 -10 -11 -13 -10 -14 6 -9 18 7 18 6
3 -12 -9 -10 -14 -24 -12 -31 7 -20 -37 -44 -59 -32 -11 6 -22 8 -26 5 -3 -3
1 -6 8 -6 10 0 9 -5 -3 -18 -10 -10 -17 -22 -17 -26 0 -5 9 2 19 15 11 13 23
21 27 16 4 -4 -9 -24 -29 -45 -21 -21 -34 -42 -30 -47 5 -4 3 -5 -3 -2 -7 4
-23 -4 -35 -18 -13 -13 -28 -25 -33 -25 -5 0 -17 -7 -26 -15 -24 -22 -131 -75
-140 -70 -8 5 -294 18 -342 16 -15 -1 -40 -14 -57 -32 -19 -19 -36 -27 -43
-23 -8 5 -7 0 2 -11 9 -11 10 -16 3 -11 -7 4 -13 4 -13 -1 0 -4 -29 -38 -64
-75 -34 -37 -61 -70 -59 -72 3 -3 -4 -2 -15 1 -11 2 -23 0 -26 -6 -5 -7 0 -9
11 -5 10 3 5 -3 -12 -13 -16 -11 -37 -28 -45 -38 -14 -17 -67 -44 -136 -70
-20 -8 -38 -9 -48 -3 -11 6 -18 5 -22 -6 -4 -10 -19 -16 -41 -16 -20 0 -32 -4
-28 -10 3 -5 -4 -10 -17 -9 -13 0 -36 -3 -53 -6 -68 -12 -145 -13 -138 -1 4 7
1 6 -9 -2 -14 -11 -61 -9 -98 6 -14 5 -65 12 -102 13 -9 0 -19 7 -22 15 -3 8
-12 11 -23 7 -16 -6 -16 -5 -4 10 13 16 12 17 -14 7 -26 -10 -27 -9 -14 7 13
16 12 16 -15 -1 -16 -10 -26 -13 -22 -8 3 6 2 13 -4 17 -5 3 -10 1 -10 -6 0
-7 -10 -3 -23 9 -13 12 -29 22 -35 22 -7 0 -12 4 -12 9 0 5 -9 13 -20 16 -11
3 -20 11 -20 16 0 13 55 -16 81 -44 21 -21 21 -21 11 -1 -6 12 -8 25 -4 29 4
5 2 5 -5 1 -6 -3 -26 2 -45 13 -18 10 -42 17 -52 16 -11 -2 -28 6 -39 18 -11
12 -23 21 -28 20 -10 -3 -50 52 -44 61 3 3 2 4 -2 1 -3 -3 -17 5 -30 17 -17
16 -20 25 -12 34 6 7 9 19 6 26 -3 8 -6 6 -6 -5 -1 -21 -10 -14 -51 43 l-24
35 26 -17 c23 -15 27 -15 32 -2 3 8 2 12 -3 9 -10 -6 -60 14 -62 24 -3 29 -10
43 -28 62 -26 28 -27 40 -3 33 13 -5 12 -1 -5 13 -12 10 -25 30 -28 45 -4 16
-11 25 -16 22 -5 -3 -6 2 -3 10 3 8 0 32 -7 53 -8 21 -14 43 -15 48 -1 6 -3
12 -4 15 -1 3 -3 16 -6 29 -2 13 -14 36 -25 52 -11 17 -22 41 -24 54 l-2 25
26 -26 c34 -34 114 -89 124 -86 5 1 6 -1 3 -6 -2 -4 10 -14 27 -22 18 -7 66
-29 107 -47 41 -19 83 -32 92 -29 10 2 16 0 12 -5 -3 -5 1 -9 8 -10 7 0 22 -3
33 -5 47 -12 75 -13 75 -4 0 12 -70 31 -83 23 -6 -3 -7 -1 -3 5 5 8 -2 12 -19
12 -36 0 -171 54 -232 92 -28 18 -74 54 -103 81 -28 26 -57 44 -62 41 -6 -4
-8 -2 -5 3 4 6 -4 23 -17 38 -24 28 -42 70 -26 60 4 -3 11 2 14 11 4 9 2 13
-5 8 -7 -4 -10 -1 -7 7 3 8 -2 28 -12 44 -20 33 -23 83 -8 102 6 7 8 27 6 43
-3 17 -1 33 4 36 4 3 8 14 8 25 0 23 56 109 71 109 6 0 7 5 4 10 -3 6 -1 10 5
10 6 0 9 4 5 9 -3 6 3 15 14 20 14 8 21 8 24 -2 3 -7 6 -5 6 5 1 9 6 20 13 24
7 4 8 3 4 -4 -4 -7 -5 -12 -1 -12 3 0 10 12 15 26 10 25 38 29 32 5 -1 -7 2
-10 8 -6 7 4 7 12 0 25 -8 16 -8 18 5 14 8 -4 15 -11 15 -17 0 -6 3 -7 6 -4 4
4 1 15 -7 24 -7 10 -9 15 -4 10 4 -4 19 3 32 15 13 12 23 17 23 11 0 -6 -6
-14 -12 -16 -7 -3 -1 -4 15 -3 15 2 30 6 35 11 4 4 1 5 -5 1 -18 -10 -16 2 2
21 9 8 23 12 31 9 12 -5 15 -2 10 10 -4 12 -2 15 9 10 8 -3 15 -2 15 2 0 4 11
12 25 19 19 8 24 8 19 0 -3 -7 1 -4 9 5 8 10 17 15 21 11 4 -4 11 -1 15 6 7
10 13 8 30 -10 11 -12 24 -19 28 -16 3 4 2 7 -4 7 -6 0 -13 9 -16 19 -3 14 -1
18 9 14 8 -3 12 -8 10 -12 -5 -9 21 -31 28 -24 10 10 7 25 -4 18 -5 -3 -10 -4
-10 -1 0 2 -3 11 -6 20 -4 11 -1 16 11 16 10 0 13 -4 9 -12 -6 -10 -5 -10 7
-1 19 15 87 33 189 49 81 12 355 12 390 0z m770 -597 c0 8 3 12 6 9 18 -18
-65 -186 -85 -173 -5 3 -12 1 -16 -5 -3 -5 -10 -10 -15 -10 -16 0 -3 31 33 79
20 27 42 63 48 81 9 23 14 28 20 18 7 -11 9 -11 9 1z m535 -232 c3 -25 2 -28
-6 -14 -6 9 -8 21 -4 26 3 5 1 12 -5 16 -5 3 -10 14 -10 23 1 28 21 -13 25
-51z m-805 -107 c-8 -5 -19 -10 -25 -10 -5 0 -3 5 5 10 8 5 20 10 25 10 6 0 3
-5 -5 -10z m187 -366 c-3 -3 -12 -4 -19 -1 -8 3 -5 6 6 6 11 1 17 -2 13 -5z
m-612 -354 c3 -5 1 -10 -4 -10 -6 0 -11 5 -11 10 0 6 2 10 4 10 3 0 8 -4 11
-10z"/>
<path d="M864 1761 c-3 -3 -29 -8 -57 -11 -29 -3 44 -6 160 -5 205 0 253 5
178 19 -41 8 -272 5 -281 -3z"/>
<path d="M1205 1750 c-3 -5 -1 -10 4 -10 6 0 11 5 11 10 0 6 -2 10 -4 10 -3 0
-8 -4 -11 -10z"/>
<path d="M1255 1740 c28 -12 37 -12 30 0 -3 6 -16 10 -28 9 -21 0 -21 -1 -2
-9z"/>
<path d="M1271 1704 c0 -11 3 -14 6 -6 3 7 2 16 -1 19 -3 4 -6 -2 -5 -13z"/>
<path d="M1395 1680 c-3 -5 -1 -11 5 -15 5 -3 10 -3 10 1 0 3 7 1 15 -6 8 -6
19 -9 25 -5 6 4 25 -4 43 -17 18 -13 46 -24 62 -25 17 0 22 1 13 4 -10 2 -18
9 -18 15 0 5 -6 8 -12 5 -7 -2 -24 3 -38 13 -33 21 -99 40 -105 30z"/>
<path d="M1610 1641 c0 -5 11 -12 25 -15 17 -4 23 -11 18 -19 -4 -7 0 -7 10 2
14 11 15 17 6 28 -9 10 -14 11 -19 2 -6 -8 -9 -8 -14 0 -9 13 -26 15 -26 2z"/>
<path d="M1696 1605 c4 -8 11 -15 16 -15 6 0 5 6 -2 15 -7 8 -14 15 -16 15 -2
0 -1 -7 2 -15z"/>
<path d="M1590 1600 c0 -5 5 -10 11 -10 5 0 7 5 4 10 -3 6 -8 10 -11 10 -2 0
-4 -4 -4 -10z"/>
<path d="M644 1586 c-3 -8 -2 -22 3 -31 8 -14 11 -13 28 5 16 18 17 23 5 30
-21 13 -30 12 -36 -4z m26 -11 c0 -8 -4 -15 -10 -15 -5 0 -10 7 -10 15 0 8 5
15 10 15 6 0 10 -7 10 -15z"/>
<path d="M1803 1543 c4 -3 1 -13 -6 -22 -11 -14 -10 -14 5 -2 16 12 16 31 1
31 -4 0 -3 -3 0 -7z"/>
<path d="M1855 1490 c10 -11 20 -20 23 -20 3 0 -3 9 -13 20 -10 11 -20 20 -23
20 -3 0 3 -9 13 -20z"/>
<path d="M188 1493 c6 -2 9 -10 6 -15 -4 -7 -2 -8 5 -4 13 9 5 26 -12 25 -9 0
-8 -2 1 -6z"/>
<path d="M212 1468 c-7 -7 -12 -17 -12 -22 0 -6 4 -5 9 3 8 13 12 13 28 0 17
-13 17 -13 3 6 -8 11 -15 21 -15 22 -1 2 -7 -3 -13 -9z"/>
<path d="M955 1457 c-49 -4 -94 -12 -100 -17 -6 -5 -23 -7 -37 -6 -15 2 -25
-1 -22 -5 3 -5 -10 -6 -28 -4 -21 4 -27 3 -15 -3 14 -6 3 -11 -42 -21 -33 -7
-63 -13 -66 -12 -3 0 -30 -10 -61 -24 -63 -28 -68 -29 -59 -15 3 6 -1 7 -10 3
-14 -5 -14 -8 -3 -15 9 -7 8 -8 -7 -5 -11 2 -19 9 -17 16 1 7 -2 10 -8 6 -8
-5 -8 -11 0 -20 9 -11 4 -17 -27 -30 -66 -28 -158 -132 -182 -208 -7 -21 -17
-34 -23 -31 -6 4 -8 -1 -3 -15 3 -11 4 -21 1 -21 -16 0 -63 81 -88 153 -27 76
-28 79 -25 36 6 -68 44 -136 116 -209 36 -36 65 -69 66 -75 0 -5 6 -9 13 -8 6
2 40 -13 74 -33 35 -19 52 -33 38 -29 -19 5 -21 4 -10 -4 8 -6 23 -8 32 -5 10
3 25 1 34 -4 14 -8 11 -11 -16 -21 -41 -14 -49 -14 -30 0 12 9 11 10 -8 6 -17
-4 -23 0 -28 19 -3 13 -10 21 -15 19 -4 -3 -5 -13 -2 -22 5 -12 2 -12 -15 3
-26 22 -28 36 -4 27 9 -3 14 -3 10 1 -10 11 -58 15 -64 4 -3 -4 -10 -5 -16 -2
-7 4 -7 9 1 13 7 4 -6 17 -31 31 -24 13 -46 28 -50 34 -5 7 -8 6 -8 -4 0 -13
-2 -13 -9 0 -6 8 -7 18 -5 22 3 4 -3 5 -12 1 -13 -5 -16 -3 -11 10 4 11 2 14
-9 10 -8 -3 -14 1 -14 9 0 8 -7 23 -16 34 -8 10 -13 12 -9 4 4 -10 2 -9 -8 3
-16 19 -27 22 -27 6 0 -6 18 -29 39 -51 111 -113 319 -231 345 -196 20 26 42
27 122 4 75 -22 78 -24 46 -31 -26 -5 -36 -3 -46 11 -9 11 -19 15 -31 10 -10
-3 -23 -2 -29 3 -7 6 -20 4 -36 -6 -14 -8 -17 -12 -7 -9 9 3 17 1 17 -5 0 -6
9 -8 21 -4 16 5 19 4 14 -5 -5 -8 -4 -11 2 -7 6 4 59 -3 119 -14 59 -11 121
-19 136 -17 15 3 25 1 22 -4 -3 -5 10 -8 30 -6 19 1 38 -1 42 -4 3 -4 17 -3
30 2 13 5 24 6 24 1 0 -12 73 -10 89 3 11 8 13 8 7 -1 -9 -16 80 -9 100 8 11
9 14 8 14 -1 0 -13 4 -13 160 17 89 16 112 26 85 37 -10 4 -14 2 -9 -5 4 -8
-1 -9 -15 -4 -12 4 -21 2 -21 -4 0 -6 -8 -11 -17 -11 -16 0 -16 2 -3 11 11 7
6 8 -20 3 -19 -3 -37 -9 -40 -13 -3 -3 -36 -7 -75 -9 -39 -2 -73 -9 -77 -15
-5 -8 -8 -7 -8 3 0 12 20 19 88 28 125 18 264 58 365 105 69 32 90 38 100 28
9 -10 8 -15 -8 -24 -11 -6 -24 -12 -30 -13 -5 0 -16 -2 -23 -2 -7 -1 -10 -7
-6 -14 5 -8 2 -9 -10 -5 -10 4 -29 4 -44 0 -24 -6 -25 -7 -7 -15 15 -6 13 -7
-12 -5 -19 2 -30 -1 -26 -7 4 -5 -1 -7 -11 -3 -9 4 -15 3 -11 -2 3 -5 -8 -12
-25 -16 -16 -4 -30 -11 -30 -16 0 -11 38 -2 57 13 7 5 18 6 25 2 7 -4 10 -3 5
1 -4 5 16 15 45 22 29 8 58 20 64 28 6 8 14 12 17 8 4 -3 16 2 28 13 12 10 23
18 25 17 12 -8 23 -1 18 12 -4 8 -1 15 5 15 6 0 11 -4 11 -10 0 -5 8 -3 18 6
9 8 28 23 41 33 20 15 22 19 8 24 -12 4 -14 2 -10 -10 5 -13 2 -15 -11 -10
-10 4 -15 3 -11 -3 3 -6 0 -10 -7 -10 -7 0 -26 -7 -42 -15 -28 -15 -46 -13
-46 7 0 5 7 8 15 4 8 -3 14 -2 12 2 -1 5 26 34 60 66 109 101 156 227 121 327
-24 72 -68 99 -52 32 7 -24 8 -25 15 -8 6 18 8 17 18 -8 6 -16 10 -38 10 -50
-1 -20 -2 -21 -6 -2 -8 34 -20 38 -19 7 1 -17 4 -28 9 -25 4 2 7 -8 8 -24 l1
-28 8 25 c7 21 8 21 9 5 2 -43 -11 -66 -33 -60 -11 2 -15 2 -8 -1 6 -3 12 -12
12 -20 0 -21 -45 -108 -64 -123 -14 -12 -16 -10 -16 17 0 17 5 34 10 37 7 4 7
13 0 26 -15 27 -31 24 -21 -3 10 -27 4 -51 -11 -42 -5 3 -3 -7 6 -24 16 -31
16 -31 -27 -67 -102 -88 -286 -163 -481 -197 -103 -17 -149 -20 -306 -15 -166
4 -197 8 -305 36 -141 37 -280 102 -347 163 l-47 43 34 70 c38 77 119 166 168
186 18 7 45 21 60 32 24 16 58 29 116 42 9 3 50 14 91 25 41 12 83 22 93 21
10 0 15 5 11 11 -5 7 -2 9 7 6 9 -3 37 0 65 7 52 13 259 19 278 8 6 -4 22 -8
36 -9 14 -1 72 -14 128 -28 57 -14 112 -26 122 -26 11 0 20 -6 20 -14 0 -8 5
-18 12 -22 7 -4 8 -3 4 4 -4 7 -3 12 3 12 5 0 13 -5 16 -11 4 -6 14 -8 22 -5
8 3 24 -3 35 -14 12 -11 25 -17 29 -14 10 6 32 -33 25 -45 -3 -5 10 -12 29
-15 24 -5 33 -11 28 -21 -3 -8 0 -15 7 -15 7 0 10 -7 6 -15 -3 -8 -1 -15 4
-15 5 0 10 -7 12 -15 3 -14 5 -13 19 3 14 16 14 20 0 32 -13 13 -14 12 -8 -3
4 -11 3 -16 -3 -12 -6 3 -10 14 -10 23 0 9 -12 31 -26 47 -14 17 -23 24 -19
18 3 -7 2 -13 -3 -13 -5 0 -14 11 -20 25 -12 26 -175 111 -192 100 -6 -4 -10
-1 -10 4 0 6 -8 11 -18 11 -11 0 -44 9 -76 20 -31 10 -54 15 -50 9 4 -7 0 -7
-12 -1 -60 31 -186 42 -329 29z m-669 -542 c10 -8 15 -14 9 -14 -5 0 -19 6
-29 14 -11 8 -15 15 -10 15 6 0 19 -7 30 -15z m469 -135 c22 -6 103 -13 180
-16 77 -4 142 -9 145 -11 3 -3 -66 -3 -152 -1 -87 1 -158 6 -158 11 0 4 -12 4
-26 1 -19 -5 -25 -3 -20 4 5 8 -3 10 -26 6 -25 -4 -29 -3 -18 5 18 13 24 13
75 1z m360 -40 c-5 -8 -11 -8 -17 -2 -6 6 -7 16 -3 22 5 8 11 8 17 2 6 -6 7
-16 3 -22z"/>
<path d="M1847 1463 c-10 -9 -9 -33 1 -33 4 0 8 9 8 20 0 23 0 22 -9 13z"/>
<path d="M156 1435 c-11 -8 -15 -15 -9 -15 6 0 16 7 23 15 16 19 11 19 -14 0z"/>
<path d="M635 1420 c-3 -6 1 -7 9 -4 18 7 21 14 7 14 -6 0 -13 -4 -16 -10z"/>
<path d="M976 1421 c-12 -5 -15 -10 -9 -14 6 -4 16 0 23 8 14 17 13 17 -14 6z"/>
<path d="M1027 1408 c-8 -30 -1 -35 12 -9 6 11 7 22 2 25 -5 3 -11 -4 -14 -16z"/>
<path d="M1142 1404 c3 -17 21 -21 26 -6 1 5 -4 12 -13 16 -11 4 -15 1 -13
-10z"/>
<path d="M124 1384 c0 -20 11 -25 11 -6 0 4 3 12 7 18 4 6 1 11 -5 11 -7 0
-13 -11 -13 -23z"/>
<path d="M1183 1394 c-8 -22 4 -29 21 -11 14 13 14 16 0 21 -8 3 -17 -1 -21
-10z"/>
<path d="M920 1390 c0 -5 5 -10 10 -10 6 0 10 5 10 10 0 6 -4 10 -10 10 -5 0
-10 -4 -10 -10z"/>
<path d="M1235 1390 c-3 -5 1 -10 10 -10 9 0 13 5 10 10 -3 6 -8 10 -10 10 -2
0 -7 -4 -10 -10z"/>
<path d="M149 1348 c-6 -24 -15 -51 -20 -60 -6 -11 -6 -18 1 -18 5 0 14 19 20
43 6 23 15 50 20 60 7 11 7 17 0 17 -5 0 -14 -19 -21 -42z"/>
<path d="M974 1365 c12 -26 21 -31 30 -16 3 5 -5 16 -18 24 -23 16 -23 15 -12
-8z"/>
<path d="M1801 1374 c0 -11 3 -14 6 -6 3 7 2 16 -1 19 -3 4 -6 -2 -5 -13z"/>
<path d="M866 1371 c-3 -5 3 -11 14 -14 13 -3 20 0 20 9 0 15 -26 19 -34 5z"/>
<path d="M1050 1370 c-8 -5 -10 -10 -5 -10 6 0 17 5 25 10 8 5 11 10 5 10 -5
0 -17 -5 -25 -10z"/>
<path d="M1290 1371 c0 -6 5 -13 10 -16 6 -3 10 1 10 9 0 9 -4 16 -10 16 -5 0
-10 -4 -10 -9z"/>
<path d="M1334 1368 c3 -17 36 -23 36 -8 0 7 -6 10 -14 7 -8 -3 -17 -2 -20 4
-2 5 -3 4 -2 -3z"/>
<path d="M820 1360 c0 -5 4 -10 9 -10 6 0 13 5 16 10 3 6 -1 10 -9 10 -9 0
-16 -4 -16 -10z"/>
<path d="M1230 1349 c0 -5 5 -7 10 -4 6 3 10 8 10 11 0 2 -4 4 -10 4 -5 0 -10
-5 -10 -11z"/>
<path d="M785 1340 c3 -5 8 -10 11 -10 2 0 4 5 4 10 0 6 -5 10 -11 10 -5 0 -7
-4 -4 -10z"/>
<path d="M930 1340 c20 -13 33 -13 25 0 -3 6 -14 10 -23 10 -15 0 -15 -2 -2
-10z"/>
<path d="M1020 1329 c0 -5 5 -7 10 -4 6 3 10 8 10 11 0 2 -4 4 -10 4 -5 0 -10
-5 -10 -11z"/>
<path d="M1356 1324 c-5 -14 -4 -15 9 -4 17 14 19 20 6 20 -5 0 -12 -7 -15
-16z"/>
<path d="M1390 1326 c0 -9 5 -16 10 -16 6 0 10 4 10 9 0 6 -4 13 -10 16 -5 3
-10 -1 -10 -9z"/>
<path d="M102 1305 c0 -16 2 -22 5 -12 2 9 2 23 0 30 -3 6 -5 -1 -5 -18z"/>
<path d="M560 1302 c6 -13 14 -21 18 -18 3 4 -2 14 -12 24 -18 16 -18 16 -6
-6z"/>
<path d="M700 1310 c0 -5 5 -10 10 -10 6 0 10 5 10 10 0 6 -4 10 -10 10 -5 0
-10 -4 -10 -10z"/>
<path d="M907 1306 c-4 -10 0 -12 14 -9 22 6 26 23 5 23 -8 0 -16 -6 -19 -14z"/>
<path d="M1430 1310 c0 -5 5 -10 11 -10 5 0 7 5 4 10 -3 6 -8 10 -11 10 -2 0
-4 -4 -4 -10z"/>
<path d="M1490 1309 c0 -5 5 -7 10 -4 6 3 10 8 10 11 0 2 -4 4 -10 4 -5 0 -10
-5 -10 -11z"/>
<path d="M1531 1317 c2 -1 13 -9 24 -17 19 -14 19 -14 6 3 -7 9 -18 17 -24 17
-6 0 -8 -1 -6 -3z"/>
<path d="M625 1300 c-3 -5 1 -10 9 -10 9 0 16 5 16 10 0 6 -4 10 -9 10 -6 0
-13 -4 -16 -10z"/>
<path d="M1375 1279 c-4 -6 -5 -12 -2 -15 2 -3 7 2 10 11 7 17 1 20 -8 4z"/>
<path d="M1440 1279 c0 -5 5 -7 10 -4 6 3 10 8 10 11 0 2 -4 4 -10 4 -5 0 -10
-5 -10 -11z"/>
<path d="M1525 1280 c-4 -6 -11 -8 -16 -5 -5 4 -9 2 -9 -4 0 -5 8 -9 18 -9 9
0 25 -3 35 -7 10 -4 17 -3 17 4 0 6 -9 11 -21 11 -11 0 -17 5 -14 10 3 6 4 10
1 10 -3 0 -8 -5 -11 -10z"/>
<path d="M1580 1282 c0 -5 7 -9 15 -9 8 0 12 4 9 9 -3 4 -9 8 -15 8 -5 0 -9
-4 -9 -8z"/>
<path d="M1951 1264 c0 -11 3 -14 6 -6 3 7 2 16 -1 19 -3 4 -6 -2 -5 -13z"/>
<path d="M592 1259 c2 -7 10 -15 17 -17 8 -3 12 1 9 9 -2 7 -10 15 -17 17 -8
3 -12 -1 -9 -9z"/>
<path d="M500 1234 c0 -8 5 -12 10 -9 6 4 8 11 5 16 -9 14 -15 11 -15 -7z"/>
<path d="M1440 1238 c0 -9 5 -20 10 -23 13 -8 13 5 0 25 -8 13 -10 13 -10 -2z"/>
<path d="M70 1233 c0 -4 5 -15 10 -23 8 -13 10 -13 10 2 0 9 -4 20 -10 23 -5
3 -10 3 -10 -2z"/>
<path d="M421 1221 c-6 -11 -7 -22 -2 -25 5 -3 11 4 14 16 8 30 1 35 -12 9z"/>
<path d="M460 1225 c0 -8 2 -15 4 -15 2 0 6 7 10 15 3 8 1 15 -4 15 -6 0 -10
-7 -10 -15z"/>
<path d="M1647 1229 c7 -7 15 -10 18 -7 3 3 -2 9 -12 12 -14 6 -15 5 -6 -5z"/>
<path d="M1771 1224 c0 -11 3 -14 6 -6 3 7 2 16 -1 19 -3 4 -6 -2 -5 -13z"/>
<path d="M1941 1224 c0 -11 3 -14 6 -6 3 7 2 16 -1 19 -3 4 -6 -2 -5 -13z"/>
<path d="M1575 1220 c-3 -5 -1 -10 4 -10 6 0 11 5 11 10 0 6 -2 10 -4 10 -3 0
-8 -4 -11 -10z"/>
<path d="M1605 1220 c-3 -6 1 -7 9 -4 18 7 21 14 7 14 -6 0 -13 -4 -16 -10z"/>
<path d="M910 1209 c0 -5 5 -7 10 -4 6 3 10 8 10 11 0 2 -4 4 -10 4 -5 0 -10
-5 -10 -11z"/>
<path d="M1490 1209 c0 -5 5 -7 10 -4 6 3 10 8 10 11 0 2 -4 4 -10 4 -5 0 -10
-5 -10 -11z"/>
<path d="M109 1134 c30 -54 135 -174 153 -174 4 0 -19 25 -51 56 -32 30 -71
80 -86 110 -15 30 -32 57 -38 61 -6 4 4 -20 22 -53z"/>
<path d="M390 1180 c-8 -5 -12 -12 -9 -15 4 -3 12 1 19 10 14 17 11 19 -10 5z"/>
<path d="M490 1180 c0 -5 5 -10 10 -10 6 0 10 5 10 10 0 6 -4 10 -10 10 -5 0
-10 -4 -10 -10z"/>
<path d="M820 1180 c0 -5 5 -10 11 -10 5 0 7 5 4 10 -3 6 -8 10 -11 10 -2 0
-4 -4 -4 -10z"/>
<path d="M735 1170 c-3 -5 -1 -10 4 -10 6 0 11 5 11 10 0 6 -2 10 -4 10 -3 0
-8 -4 -11 -10z"/>
<path d="M1607 1161 c-4 -17 -3 -21 5 -13 5 5 8 16 6 23 -3 8 -7 3 -11 -10z"/>
<path d="M1640 1165 c14 -17 30 -20 30 -4 0 5 -4 7 -10 4 -5 -3 -10 -1 -10 4
0 6 -5 11 -11 11 -8 0 -8 -5 1 -15z"/>
<path d="M1058 1163 c7 -3 16 -2 19 1 4 3 -2 6 -13 5 -11 0 -14 -3 -6 -6z"/>
<path d="M1747 1163 c-4 -3 -7 -20 -7 -36 0 -38 9 -31 14 11 4 34 3 36 -7 25z"/>
<path d="M360 1155 c0 -5 5 -17 10 -25 5 -8 10 -10 10 -5 0 6 -5 17 -10 25 -5
8 -10 11 -10 5z"/>
<path d="M510 1150 c0 -5 5 -10 10 -10 6 0 10 5 10 10 0 6 -4 10 -10 10 -5 0
-10 -4 -10 -10z"/>
<path d="M1140 1135 c0 -8 2 -15 4 -15 2 0 6 7 10 15 3 8 1 15 -4 15 -6 0 -10
-7 -10 -15z"/>
<path d="M2128 1143 c7 -3 16 -2 19 1 4 3 -2 6 -13 5 -11 0 -14 -3 -6 -6z"/>
<path d="M2170 1146 c0 -2 8 -10 18 -17 15 -13 16 -12 3 4 -13 16 -21 21 -21
13z"/>
<path d="M2380 1143 c0 -15 19 -37 26 -31 3 4 -1 14 -10 23 -9 9 -16 13 -16 8z"/>
<path d="M346 1132 c2 -3 -1 -11 -8 -19 -8 -11 -6 -18 10 -34 12 -11 22 -16
22 -11 0 5 -7 15 -15 22 -13 11 -13 15 -3 21 9 6 10 11 2 17 -6 5 -9 7 -8 4z"/>
<path d="M450 1129 c0 -5 5 -7 10 -4 6 3 10 8 10 11 0 2 -4 4 -10 4 -5 0 -10
-5 -10 -11z"/>
<path d="M485 1130 c-3 -5 -1 -10 4 -10 6 0 11 5 11 10 0 6 -2 10 -4 10 -3 0
-8 -4 -11 -10z"/>
<path d="M565 1130 c3 -5 11 -10 16 -10 6 0 7 5 4 10 -3 6 -11 10 -16 10 -6 0
-7 -4 -4 -10z"/>
<path d="M745 1130 c4 -6 11 -8 16 -5 14 9 11 15 -7 15 -8 0 -12 -5 -9 -10z"/>
<path d="M975 1130 c3 -5 11 -10 16 -10 6 0 7 5 4 10 -3 6 -11 10 -16 10 -6 0
-7 -4 -4 -10z"/>
<path d="M2018 1133 c7 -3 16 -2 19 1 4 3 -2 6 -13 5 -11 0 -14 -3 -6 -6z"/>
<path d="M2070 1132 c0 -4 9 -8 19 -8 11 0 17 4 15 8 -7 10 -34 10 -34 0z"/>
<path d="M1025 1120 c-4 -6 6 -10 22 -10 22 0 25 2 13 10 -19 12 -27 12 -35 0z"/>
<path d="M1290 1119 c0 -5 5 -7 10 -4 6 3 10 8 10 11 0 2 -4 4 -10 4 -5 0 -10
-5 -10 -11z"/>
<path d="M1670 1119 c0 -5 5 -7 10 -4 6 3 10 8 10 11 0 2 -4 4 -10 4 -5 0 -10
-5 -10 -11z"/>
<path d="M450 1100 c0 -5 5 -10 10 -10 6 0 10 5 10 10 0 6 -4 10 -10 10 -5 0
-10 -4 -10 -10z"/>
<path d="M2235 1100 c-3 -6 1 -7 9 -4 18 7 21 14 7 14 -6 0 -13 -4 -16 -10z"/>
<path d="M540 1085 c7 -9 15 -13 17 -11 7 7 -7 26 -19 26 -6 0 -6 -6 2 -15z"/>
<path d="M1095 1090 c-3 -5 -2 -10 4 -10 5 0 13 5 16 10 3 6 2 10 -4 10 -5 0
-13 -4 -16 -10z"/>
<path d="M1795 1089 c-4 -6 -5 -12 -2 -15 2 -3 7 2 10 11 7 17 1 20 -8 4z"/>
<path d="M475 1080 c-3 -5 -1 -10 4 -10 6 0 11 5 11 10 0 6 -2 10 -4 10 -3 0
-8 -4 -11 -10z"/>
<path d="M850 1080 c0 -6 5 -8 11 -4 6 3 16 0 21 -7 8 -12 9 -11 5 1 -4 18
-37 27 -37 10z"/>
<path d="M1320 1079 c0 -5 5 -7 10 -4 6 3 10 8 10 11 0 2 -4 4 -10 4 -5 0 -10
-5 -10 -11z"/>
<path d="M305 1070 c-3 -5 -2 -10 4 -10 5 0 13 5 16 10 3 6 2 10 -4 10 -5 0
-13 -4 -16 -10z"/>
<path d="M1005 1070 c-3 -5 -2 -10 4 -10 5 0 13 5 16 10 3 6 2 10 -4 10 -5 0
-13 -4 -16 -10z"/>
<path d="M1701 1064 c0 -11 3 -14 6 -6 3 7 2 16 -1 19 -3 4 -6 -2 -5 -13z"/>
<path d="M648 1063 c7 -3 16 -2 19 1 4 3 -2 6 -13 5 -11 0 -14 -3 -6 -6z"/>
<path d="M768 1063 c6 -2 18 -2 25 0 6 3 1 5 -13 5 -14 0 -19 -2 -12 -5z"/>
<path d="M960 1061 c0 -6 4 -13 10 -16 6 -3 7 1 4 9 -7 18 -14 21 -14 7z"/>
<path d="M1230 1060 c0 -5 5 -10 11 -10 5 0 7 5 4 10 -3 6 -8 10 -11 10 -2 0
-4 -4 -4 -10z"/>
<path d="M1451 1053 c-7 -8 -11 -16 -8 -19 2 -2 10 2 17 11 17 20 9 27 -9 8z"/>
<path d="M1581 1057 c2 -1 13 -9 24 -17 19 -14 19 -14 6 3 -7 9 -18 17 -24 17
-6 0 -8 -1 -6 -3z"/>
<path d="M1640 1047 c0 -8 6 -20 14 -26 12 -10 13 -8 9 9 -7 25 -23 37 -23 17z"/>
<path d="M2274 1052 c5 -8 66 -4 66 4 0 2 -16 4 -36 4 -19 0 -33 -4 -30 -8z"/>
<path d="M294 1032 c0 -11 8 -19 19 -19 18 -2 18 -1 2 18 -22 23 -21 23 -21 1z"/>
<path d="M771 1034 c0 -11 3 -14 6 -6 3 7 2 16 -1 19 -3 4 -6 -2 -5 -13z"/>
<path d="M1076 1035 c4 -8 8 -15 10 -15 2 0 4 7 4 15 0 8 -4 15 -10 15 -5 0
-7 -7 -4 -15z"/>
<path d="M1170 1046 c0 -2 7 -7 16 -10 8 -3 12 -2 9 4 -6 10 -25 14 -25 6z"/>
<path d="M2183 1043 c9 -2 25 -2 35 0 9 3 1 5 -18 5 -19 0 -27 -2 -17 -5z"/>
<path d="M590 1024 c0 -8 5 -12 10 -9 6 4 8 11 5 16 -9 14 -15 11 -15 -7z"/>
<path d="M2098 1033 c6 -2 18 -2 25 0 6 3 1 5 -13 5 -14 0 -19 -2 -12 -5z"/>
<path d="M405 1020 c3 -5 8 -10 11 -10 2 0 4 5 4 10 0 6 -5 10 -11 10 -5 0 -7
-4 -4 -10z"/>
<path d="M1101 1017 c0 -10 6 -25 14 -33 13 -14 15 -14 15 0 0 9 -4 16 -9 16
-5 0 -12 8 -14 18 -4 16 -5 16 -6 -1z"/>
<path d="M620 1005 c-8 -9 -8 -15 -2 -15 12 0 26 19 19 26 -2 2 -10 -2 -17
-11z"/>
<path d="M695 1010 c-3 -5 -1 -10 4 -10 6 0 11 5 11 10 0 6 -2 10 -4 10 -3 0
-8 -4 -11 -10z"/>
<path d="M398 993 c7 -3 16 -2 19 1 4 3 -2 6 -13 5 -11 0 -14 -3 -6 -6z"/>
<path d="M741 988 c0 -9 -4 -25 -7 -35 -5 -17 -5 -17 6 0 6 10 9 25 7 35 -4
15 -5 15 -6 0z"/>
<path d="M1667 980 c-3 -11 -3 -20 -1 -20 2 0 8 9 14 20 6 11 7 20 2 20 -6 0
-12 -9 -15 -20z"/>
<path d="M1982 991 c-11 -7 -10 -9 2 -14 9 -4 22 -4 29 -2 6 3 32 1 57 -4 33
-6 37 -9 17 -10 -15 -1 -44 -8 -64 -16 -45 -19 -52 -19 -27 1 10 8 14 13 7 10
-6 -4 -14 0 -16 6 -4 10 -6 10 -6 1 -1 -7 -9 -22 -18 -33 -10 -11 -18 -26 -19
-33 -3 -32 -5 -36 -19 -31 -8 4 -15 12 -15 20 0 8 -4 14 -10 14 -5 0 -10 5
-10 11 0 5 4 8 9 5 5 -3 11 0 14 8 10 24 -5 26 -24 3 -24 -29 -24 -16 1 25 13
22 20 27 20 16 0 -10 6 -17 13 -15 7 1 11 -6 9 -17 -4 -24 14 -12 21 14 3 11
1 17 -4 14 -5 -3 -12 1 -15 9 -12 33 -60 -5 -117 -95 -9 -14 -31 -40 -49 -57
-18 -16 -29 -33 -25 -37 4 -4 13 -2 19 4 7 7 15 12 19 12 10 0 16 -119 7 -123
-4 -1 -11 -41 -16 -90 -8 -85 -7 -87 13 -80 20 6 65 6 126 -2 81 -10 260 -7
274 5 8 7 15 10 15 6 0 -4 18 3 40 14 22 11 40 23 40 26 0 2 -8 1 -17 -4 -10
-5 -31 -8 -46 -6 -18 2 -30 -3 -34 -12 -3 -7 -10 -11 -16 -7 -6 3 -7 1 -3 -5
5 -8 -7 -11 -38 -10 -25 1 -40 6 -33 10 16 10 3 20 -17 12 -9 -3 -13 -10 -10
-15 6 -10 -9 -12 -19 -2 -11 10 -56 10 -50 0 3 -5 -4 -6 -16 -2 -12 3 -53 6
-91 6 -42 0 -68 4 -65 9 8 13 -2 13 -27 -1 -19 -10 -20 -9 -13 7 5 11 9 40 9
67 1 39 3 45 13 31 11 -15 13 -13 19 11 7 28 7 28 24 8 10 -12 28 -20 46 -20
73 1 155 -7 160 -14 3 -5 14 -14 26 -20 12 -7 18 -7 14 -1 -3 6 0 12 6 15 7 2
9 8 5 13 -4 5 -12 2 -17 -6 -7 -11 -12 -12 -20 -4 -9 9 -9 14 -1 18 6 4 11 5
11 2 0 -3 11 -1 25 4 20 8 23 7 18 -8 -4 -11 3 -8 21 9 18 19 33 25 48 21 14
-3 19 -1 14 6 -5 8 1 12 14 12 12 0 18 5 15 10 -3 6 -1 10 5 10 6 0 36 25 67
55 32 31 62 54 68 51 7 -2 18 0 26 6 11 8 10 9 -3 4 -21 -6 -22 -2 -7 25 5 11
13 18 17 15 6 -3 7 36 3 64 -1 3 -17 -19 -36 -48 -43 -64 -134 -156 -175 -177
-59 -31 -160 -47 -246 -40 -44 3 -86 10 -94 15 -11 7 -9 23 10 89 22 74 26 81
49 81 14 0 42 14 61 30 67 58 93 64 251 68 213 5 242 -11 221 -127 -5 -28 -8
-51 -6 -51 2 0 11 16 19 36 17 41 19 82 5 104 -5 9 -5 19 1 27 15 18 3 31 -25
28 -14 -2 -27 3 -30 10 -4 10 -44 14 -176 15 -93 0 -176 2 -183 5 -37 11 -64
13 -75 6z m401 -28 c-7 -2 -19 -2 -25 0 -7 3 -2 5 12 5 14 0 19 -2 13 -5z m79
-35 c-9 -9 -15 -9 -24 1 -11 11 -10 13 5 8 10 -4 17 -2 17 5 0 6 3 8 7 5 4 -4
1 -13 -5 -19z m-471 -12 c17 10 9 -3 -13 -22 -12 -10 -18 -13 -14 -6 4 7 2 12
-5 12 -8 0 -8 5 2 16 8 10 15 12 17 5 2 -6 8 -9 13 -5z m-101 -41 c0 -12 -7
-36 -16 -51 l-16 -29 5 43 c5 42 5 43 -13 27 -14 -13 -18 -26 -14 -56 3 -24 1
-39 -6 -39 -6 0 -8 -10 -4 -25 5 -20 3 -24 -9 -19 -9 3 -13 13 -10 25 3 10 -2
30 -10 43 -16 23 -15 26 24 70 42 48 69 52 69 11z m-64 -182 c-3 -8 -6 -19 -6
-24 0 -5 -4 -9 -9 -9 -4 0 -8 13 -7 29 1 19 5 27 14 23 7 -2 11 -11 8 -19z
m384 -163 c0 -5 -2 -10 -4 -10 -3 0 -8 5 -11 10 -3 6 -1 10 4 10 6 0 11 -4 11
-10z"/>
<path d="M910 981 c0 -7 -7 -11 -14 -8 -10 4 -13 1 -9 -9 3 -7 9 -14 13 -14
10 0 22 31 15 38 -3 3 -5 0 -5 -7z"/>
<path d="M1021 987 c2 -1 12 -9 22 -16 15 -12 17 -12 11 3 -3 9 -13 16 -22 16
-8 0 -13 -1 -11 -3z"/>
<path d="M1297 970 c-3 -11 -1 -20 4 -20 5 0 9 9 9 20 0 11 -2 20 -4 20 -2 0
-6 -9 -9 -20z"/>
<path d="M390 961 c0 -17 18 -21 24 -6 3 9 0 15 -9 15 -8 0 -15 -4 -15 -9z"/>
<path d="M615 960 c-3 -6 1 -7 9 -4 18 7 21 14 7 14 -6 0 -13 -4 -16 -10z"/>
<path d="M817 963 c-4 -3 -7 -13 -7 -22 1 -13 3 -13 11 2 11 19 8 33 -4 20z"/>
<path d="M935 960 c3 -5 8 -10 11 -10 2 0 4 5 4 10 0 6 -5 10 -11 10 -5 0 -7
-4 -4 -10z"/>
<path d="M1155 959 c-4 -6 -5 -12 -2 -15 2 -3 7 2 10 11 7 17 1 20 -8 4z"/>
<path d="M1181 944 c0 -11 3 -14 6 -6 3 7 2 16 -1 19 -3 4 -6 -2 -5 -13z"/>
<path d="M1356 943 c-6 -14 -5 -15 5 -6 7 7 10 15 7 18 -3 3 -9 -2 -12 -12z"/>
<path d="M1450 940 c0 -5 5 -10 10 -10 6 0 10 5 10 10 0 6 -4 10 -10 10 -5 0
-10 -4 -10 -10z"/>
<path d="M975 930 c-3 -5 -1 -10 4 -10 6 0 11 5 11 10 0 6 -2 10 -4 10 -3 0
-8 -4 -11 -10z"/>
<path d="M1250 930 c0 -5 5 -10 11 -10 5 0 7 5 4 10 -3 6 -8 10 -11 10 -2 0
-4 -4 -4 -10z"/>
<path d="M1560 930 c-9 -6 -10 -10 -3 -10 6 0 15 5 18 10 8 12 4 12 -15 0z"/>
<path d="M140 927 c0 -2 15 -16 33 -33 l32 -29 -29 33 c-28 30 -36 37 -36 29z"/>
<path d="M1523 923 c4 -3 1 -13 -6 -22 -11 -14 -10 -14 5 -2 16 12 16 31 1 31
-4 0 -3 -3 0 -7z"/>
<path d="M525 910 c3 -5 11 -10 16 -10 6 0 7 5 4 10 -3 6 -11 10 -16 10 -6 0
-7 -4 -4 -10z"/>
<path d="M1036 905 c4 -8 11 -15 16 -15 6 0 5 6 -2 15 -7 8 -14 15 -16 15 -2
0 -1 -7 2 -15z"/>
<path d="M1110 910 c0 -5 5 -10 11 -10 5 0 7 5 4 10 -3 6 -8 10 -11 10 -2 0
-4 -4 -4 -10z"/>
<path d="M905 900 c-3 -5 -1 -10 4 -10 6 0 11 5 11 10 0 6 -2 10 -4 10 -3 0
-8 -4 -11 -10z"/>
<path d="M980 900 c0 -5 5 -10 10 -10 6 0 10 5 10 10 0 6 -4 10 -10 10 -5 0
-10 -4 -10 -10z"/>
<path d="M1226 895 c-9 -26 -7 -32 5 -12 6 10 9 21 6 23 -2 3 -7 -2 -11 -11z"/>
<path d="M770 890 c0 -5 5 -10 10 -10 6 0 10 5 10 10 0 6 -4 10 -10 10 -5 0
-10 -4 -10 -10z"/>
<path d="M1436 883 c-6 -14 -5 -15 5 -6 7 7 10 15 7 18 -3 3 -9 -2 -12 -12z"/>
<path d="M1645 890 c3 -5 8 -10 11 -10 2 0 4 5 4 10 0 6 -5 10 -11 10 -5 0 -7
-4 -4 -10z"/>
<path d="M1400 879 c0 -5 5 -7 10 -4 6 3 10 8 10 11 0 2 -4 4 -10 4 -5 0 -10
-5 -10 -11z"/>
<path d="M576 871 c-4 -5 3 -7 14 -4 23 6 26 13 6 13 -8 0 -17 -4 -20 -9z"/>
<path d="M842 855 c0 -16 2 -22 5 -12 2 9 2 23 0 30 -3 6 -5 -1 -5 -18z"/>
<path d="M1285 869 c-4 -6 -5 -12 -2 -15 2 -3 7 2 10 11 7 17 1 20 -8 4z"/>
<path d="M715 860 c-3 -6 1 -7 9 -4 18 7 21 14 7 14 -6 0 -13 -4 -16 -10z"/>
<path d="M1191 861 c-7 -5 -11 -15 -9 -22 3 -10 8 -7 17 9 13 24 12 26 -8 13z"/>
<path d="M1305 860 c-3 -5 -1 -10 4 -10 6 0 11 5 11 10 0 6 -2 10 -4 10 -3 0
-8 -4 -11 -10z"/>
<path d="M1245 850 c-3 -5 1 -10 10 -10 9 0 13 5 10 10 -3 6 -8 10 -10 10 -2
0 -7 -4 -10 -10z"/>
<path d="M275 816 c22 -20 44 -36 48 -36 11 0 -11 20 -53 48 -33 22 -33 22 5
-12z"/>
<path d="M670 840 c0 -5 5 -10 11 -10 5 0 7 5 4 10 -3 6 -8 10 -11 10 -2 0 -4
-4 -4 -10z"/>
<path d="M209 804 c11 -22 19 -48 18 -58 -1 -11 4 -20 11 -22 7 -1 8 0 3 2 -5
3 -7 24 -5 46 2 23 1 38 -2 35 -4 -3 -15 4 -26 16 -18 21 -18 21 1 -19z"/>
<path d="M870 820 c-8 -5 -12 -12 -9 -15 4 -3 12 1 19 10 14 17 11 19 -10 5z"/>
<path d="M1960 826 c0 -2 7 -7 16 -10 8 -3 12 -2 9 4 -6 10 -25 14 -25 6z"/>
<path d="M1051 817 c2 -1 13 -9 24 -17 19 -14 19 -14 6 3 -7 9 -18 17 -24 17
-6 0 -8 -1 -6 -3z"/>
<path d="M250 775 c7 -8 17 -15 22 -15 5 0 3 7 -6 15 -8 8 -18 15 -22 15 -3 0
-1 -7 6 -15z"/>
<path d="M353 773 c9 -2 17 -7 17 -10 0 -3 -8 -12 -17 -20 -13 -10 -9 -10 15
2 17 8 32 18 32 21 0 3 -4 2 -10 -1 -5 -3 -10 -1 -10 4 0 6 -10 10 -22 10 -17
-1 -19 -2 -5 -6z"/>
<path d="M1632 765 c-44 -24 -47 -37 -4 -16 23 12 42 24 42 26 0 8 -13 4 -38
-10z"/>
<path d="M2333 758 c1 -7 -4 -12 -10 -10 -7 1 -12 -2 -10 -7 1 -5 -1 -9 -6
-10 -4 0 -21 -16 -37 -35 -28 -32 -81 -60 -94 -50 -3 2 -4 1 -1 -3 3 -3 0 -12
-6 -20 -7 -8 -8 -13 -1 -13 5 0 15 7 22 15 7 8 16 12 21 10 9 -6 27 8 95 71
42 39 55 64 34 64 -5 0 -9 -6 -7 -12z"/>
<path d="M1660 750 c-9 -6 -10 -10 -3 -10 6 0 15 5 18 10 8 12 4 12 -15 0z"/>
<path d="M267 708 c-9 -23 -15 -43 -13 -46 2 -2 10 12 17 32 13 35 35 40 24 5
-9 -27 0 -24 20 7 9 15 12 23 6 20 -6 -4 -14 0 -17 8 -10 26 -20 19 -37 -26z"/>
<path d="M425 740 c-3 -6 1 -7 9 -4 18 7 21 14 7 14 -6 0 -13 -4 -16 -10z"/>
<path d="M1379 743 c-1 -5 -1 -12 0 -16 1 -5 -3 -6 -9 -2 -17 10 -369 -28
-367 -40 3 -17 21 -24 45 -18 16 4 28 -1 37 -13 16 -22 20 -12 5 16 -9 16 -6
17 32 9 22 -6 43 -7 46 -4 3 3 -2 5 -11 5 -9 0 -19 5 -22 10 -4 6 9 10 32 10
30 0 35 -3 23 -11 -12 -9 -12 -10 3 -5 10 3 21 6 23 6 3 0 2 5 -1 10 -3 6 -1
10 4 10 6 0 11 -4 11 -10 0 -5 13 -8 29 -7 16 1 27 6 24 11 -3 4 3 6 13 2 11
-3 53 3 94 13 70 16 72 18 41 24 -43 9 -51 9 -52 0z m-52 -29 c-3 -3 -12 -4
-19 -1 -8 3 -5 6 6 6 11 1 17 -2 13 -5z m-272 -34 c-26 -11 -35 -12 -35 -2 0
4 12 8 28 9 23 1 24 1 7 -7z"/>
<path d="M1685 730 c3 -5 8 -10 11 -10 2 0 4 5 4 10 0 6 -5 10 -11 10 -5 0 -7
-4 -4 -10z"/>
<path d="M646 715 c-8 -22 -8 -25 5 -25 5 0 7 5 3 12 -5 8 0 9 17 5 13 -4 29
-7 36 -7 7 0 10 -7 7 -17 -4 -13 -3 -14 3 -5 11 14 93 23 93 9 0 -4 10 -3 21
4 15 8 19 8 15 0 -9 -14 129 -19 143 -5 10 9 -9 12 -116 19 -154 10 -175 12
-199 20 -15 5 -23 2 -28 -10z"/>
<path d="M360 711 c0 -6 4 -13 10 -16 6 -3 7 1 4 9 -7 18 -14 21 -14 7z"/>
<path d="M1505 710 c-13 -5 -14 -9 -5 -9 8 0 24 4 35 9 13 5 14 9 5 9 -8 0
-24 -4 -35 -9z"/>
<path d="M1634 705 c-10 -8 -14 -14 -9 -14 6 0 19 6 29 14 11 8 15 15 10 15
-6 0 -19 -7 -30 -15z"/>
<path d="M1434 691 c3 -5 15 -7 26 -4 28 7 25 13 -6 13 -14 0 -23 -4 -20 -9z"/>
<path d="M335 670 c3 -5 8 -10 11 -10 2 0 4 5 4 10 0 6 -5 10 -11 10 -5 0 -7
-4 -4 -10z"/>
<path d="M1398 673 c7 -3 16 -2 19 1 4 3 -2 6 -13 5 -11 0 -14 -3 -6 -6z"/>
<path d="M470 660 c8 -5 20 -10 25 -10 6 0 3 5 -5 10 -8 5 -19 10 -25 10 -5 0
-3 -5 5 -10z"/>
<path d="M648 663 c7 -3 16 -2 19 1 4 3 -2 6 -13 5 -11 0 -14 -3 -6 -6z"/>
<path d="M1358 663 c7 -3 16 -2 19 1 4 3 -2 6 -13 5 -11 0 -14 -3 -6 -6z"/>
<path d="M750 646 c19 -7 37 -12 39 -10 7 7 -3 12 -39 18 l-35 6 35 -14z"/>
<path d="M1308 653 c6 -2 18 -2 25 0 6 3 1 5 -13 5 -14 0 -19 -2 -12 -5z"/>
<path d="M830 636 c6 -6 18 -5 32 1 21 10 21 10 -9 9 -20 0 -29 -4 -23 -10z"/>
<path d="M898 638 c5 -5 16 -8 23 -6 8 3 3 7 -10 11 -17 4 -21 3 -13 -5z"/>
<path d="M1018 643 c7 -3 16 -2 19 1 4 3 -2 6 -13 5 -11 0 -14 -3 -6 -6z"/>
<path d="M1160 640 c-13 -8 -12 -10 3 -10 9 0 17 5 17 10 0 12 -1 12 -20 0z"/>
<path d="M1248 643 c7 -3 16 -2 19 1 4 3 -2 6 -13 5 -11 0 -14 -3 -6 -6z"/>
<path d="M2326 631 c-22 -24 -3 -39 20 -17 12 12 12 16 2 17 -7 1 -2 5 12 9
22 7 23 8 4 9 -11 1 -29 -8 -38 -18z"/>
<path d="M1066 632 c-3 -5 1 -9 9 -9 8 0 12 4 9 9 -3 4 -7 8 -9 8 -2 0 -6 -4
-9 -8z"/>
<path d="M270 626 c0 -2 7 -9 15 -16 13 -11 14 -10 9 4 -5 14 -24 23 -24 12z"/>
<path d="M998 623 c7 -3 16 -2 19 1 4 3 -2 6 -13 5 -11 0 -14 -3 -6 -6z"/>
<path d="M1890 600 c-12 -8 -11 -10 8 -10 12 0 22 5 22 10 0 13 -11 13 -30 0z"/>
<path d="M700 592 c0 -4 17 -9 37 -10 44 -3 42 3 -4 11 -18 4 -33 3 -33 -1z"/>
<path d="M1048 593 c7 -3 16 -2 19 1 4 3 -2 6 -13 5 -11 0 -14 -3 -6 -6z"/>
<path d="M1308 593 c7 -3 16 -2 19 1 4 3 -2 6 -13 5 -11 0 -14 -3 -6 -6z"/>
<path d="M1938 583 c7 -3 16 -2 19 1 4 3 -2 6 -13 5 -11 0 -14 -3 -6 -6z"/>
<path d="M818 573 c7 -3 16 -2 19 1 4 3 -2 6 -13 5 -11 0 -14 -3 -6 -6z"/>
<path d="M2030 571 c0 -11 82 -20 93 -11 5 4 3 11 -4 15 -8 5 -10 4 -5 -3 6
-11 -31 -9 -71 4 -7 2 -13 -1 -13 -5z"/>
<path d="M699 543 c4 -15 13 -28 19 -29 7 -1 8 0 2 3 -5 2 -10 13 -10 23 0 10
-4 21 -9 24 -5 4 -6 -5 -2 -21z"/>
<path d="M785 560 c-3 -5 -1 -10 4 -10 6 0 11 5 11 10 0 6 -2 10 -4 10 -3 0
-8 -4 -11 -10z"/>
<path d="M1048 563 c7 -3 16 -2 19 1 4 3 -2 6 -13 5 -11 0 -14 -3 -6 -6z"/>
<path d="M300 551 c0 -6 4 -13 10 -16 6 -3 7 1 4 9 -7 18 -14 21 -14 7z"/>
<path d="M740 550 c0 -5 7 -7 15 -4 8 4 15 8 15 10 0 2 -7 4 -15 4 -8 0 -15
-4 -15 -10z"/>
<path d="M1870 557 c0 -3 15 -10 32 -16 18 -6 28 -7 23 -2 -12 10 -55 25 -55
18z"/>
<path d="M305 510 c3 -5 8 -10 11 -10 2 0 4 5 4 10 0 6 -5 10 -11 10 -5 0 -7
-4 -4 -10z"/>
<path d="M765 511 l-30 -7 27 -5 c18 -4 29 -1 32 7 3 8 4 13 3 13 -1 -1 -15
-4 -32 -8z"/>
<path d="M1690 471 c0 -6 4 -13 10 -16 6 -3 7 1 4 9 -7 18 -14 21 -14 7z"/>
<path d="M1619 383 c-17 -20 -18 -23 -3 -10 11 9 23 15 26 12 2 -3 5 2 5 10 0
19 1 20 -28 -12z"/>
<path d="M435 390 c3 -5 14 -10 23 -10 15 0 15 2 2 10 -20 13 -33 13 -25 0z"/>
<path d="M1619 353 c-13 -16 -12 -17 4 -4 16 13 21 21 13 21 -2 0 -10 -8 -17
-17z"/>
<path d="M471 344 c0 -11 3 -14 6 -6 3 7 2 16 -1 19 -3 4 -6 -2 -5 -13z"/>
<path d="M450 313 c0 -12 4 -25 10 -28 5 -3 7 0 5 7 -4 9 2 14 15 15 11 1 19
-1 16 -5 -8 -14 14 -52 30 -52 15 0 16 2 2 18 -8 9 -18 25 -22 36 -3 10 -12
16 -20 13 -7 -3 -19 0 -25 6 -8 8 -11 5 -11 -10z"/>
<path d="M1577 313 c-16 -16 -19 -16 -27 -3 -9 13 -10 13 -10 0 0 -13 -1 -13
-10 0 -7 12 -9 10 -8 -7 2 -15 7 -20 22 -17 18 3 69 44 55 44 -2 0 -13 -8 -22
-17z"/>
<path d="M1470 227 c-14 -11 -25 -37 -16 -37 2 0 11 11 20 25 18 28 18 30 -4
12z"/>
<path d="M1320 150 c-8 -5 -12 -11 -10 -14 3 -2 14 2 24 10 22 15 10 19 -14 4z"/>
<path d="M770 146 c0 -2 8 -10 18 -17 15 -13 16 -12 3 4 -13 16 -21 21 -21 13z"/>
<path d="M1238 133 c7 -3 16 -2 19 1 4 3 -2 6 -13 5 -11 0 -14 -3 -6 -6z"/>
<path d="M1957 1123 c-8 -21 -24 -47 -36 -57 -23 -21 -27 -36 -10 -36 5 0 7 5
4 10 -3 6 1 13 10 17 16 6 60 91 52 100 -3 2 -11 -13 -20 -34z"/>
<path d="M465 1740 c-3 -6 1 -7 9 -4 18 7 21 14 7 14 -6 0 -13 -4 -16 -10z"/>
<path d="M253 1661 c0 -11 5 -18 9 -15 4 3 5 11 1 19 -7 21 -12 19 -10 -4z"/>
<path d="M1810 1655 c13 -14 26 -25 28 -25 3 0 -5 11 -18 25 -13 14 -26 25
-28 25 -3 0 5 -11 18 -25z"/>
<path d="M86 1511 c-4 -5 -2 -12 3 -15 5 -4 12 -2 15 3 4 5 2 12 -3 15 -5 4
-12 2 -15 -3z"/>
<path d="M325 351 c-3 -5 -2 -12 3 -15 5 -3 9 1 9 9 0 17 -3 19 -12 6z"/>
<path d="M1710 346 c0 -3 9 -10 20 -16 11 -6 20 -8 20 -6 0 3 -9 10 -20 16
-11 6 -20 8 -20 6z"/>
<path d="M1406 91 c-3 -4 4 -7 14 -6 27 2 33 10 10 12 -11 1 -22 -2 -24 -6z"/>
</g>
</svg>
